<svg width="33" height="33" viewBox="0 0 33 33" fill="none" xmlns="http://www.w3.org/2000/svg">
<path d="M11.0047 2.74854C7.07124 2.74854 3.58121 5.516 2.79774 9.32269C2.64456 10.0666 3.12815 10.8025 3.87189 10.9556C4.61563 11.1087 5.35166 10.6251 5.5047 9.88135C6.02638 7.34667 8.38271 5.49854 11.0047 5.49854C11.7641 5.49854 12.3797 4.88295 12.3797 4.12354C12.3797 3.36412 11.7641 2.74854 11.0047 2.74854ZM22.0047 2.74854C21.2453 2.74854 20.6297 3.36412 20.6297 4.12354C20.6297 4.88295 21.2453 5.49854 22.0047 5.49854C24.6297 5.49854 27.0294 7.34269 27.5477 9.88135C27.6995 10.6254 28.4364 11.1074 29.1806 10.9556C29.9246 10.8037 30.4066 10.0668 30.2547 9.32269C29.4762 5.50995 25.9428 2.74854 22.0047 2.74854ZM16.5047 5.49854C9.67013 5.49854 4.1297 11.039 4.1297 17.8735C4.1297 20.7756 5.16398 23.4976 6.8368 25.6079L4.55939 27.8852C4.02245 28.4223 4.02245 29.3248 4.55939 29.8619C5.09633 30.3988 5.95598 30.3558 6.49305 29.8189L8.77033 27.5414C10.8807 29.2143 13.6026 30.2485 16.5047 30.2485C19.4068 30.2485 22.1287 29.1714 24.2391 27.4985L26.5594 29.8619C27.0963 30.3988 27.956 30.3558 28.4931 29.8189C29.03 29.2819 28.987 28.4223 28.45 27.8852L26.1727 25.565C27.8207 23.567 28.8797 20.7756 28.8797 17.8735C28.8797 11.039 23.3393 5.49854 16.5047 5.49854ZM16.5047 8.24854C21.8205 8.24854 26.1297 12.5578 26.1297 17.8735C26.1297 23.1893 21.8205 27.4985 16.5047 27.4985C11.189 27.4985 6.8797 23.1893 6.8797 17.8735C6.8797 12.5578 11.189 8.24854 16.5047 8.24854ZM16.5047 10.9985C15.7453 10.9985 15.1297 11.6141 15.1297 12.3735V16.4985H11.0047C10.2453 16.4985 9.6297 17.1141 9.6297 17.8735C9.6297 18.633 10.2453 19.2485 11.0047 19.2485H16.5047C17.2641 19.2485 17.8797 18.633 17.8797 17.8735V12.3735C17.8797 11.6141 17.2641 10.9985 16.5047 10.9985Z" fill="#2A343D"/>
</svg>
