<svg width="26" height="26" viewBox="0 0 26 26" fill="none" xmlns="http://www.w3.org/2000/svg">
<g clip-path="url(#clip0_16_166)">
<path d="M7.66835 25.5133C7.15573 25.1723 6.70141 24.7509 6.32285 24.2653C5.90643 23.7641 5.5206 23.2383 5.16747 22.6907C4.33879 21.4767 3.68891 20.1498 3.23779 18.7509C2.69585 17.1259 2.43341 15.5683 2.43341 14.0449C2.43341 12.3435 2.80147 10.8583 3.52135 9.61025C4.05498 8.6348 4.83956 7.81965 5.79391 7.24913C6.71879 6.67467 7.78148 6.36029 8.87003 6.33913C9.2511 6.33913 9.66141 6.39438 10.0969 6.5C10.4097 6.58857 10.7908 6.72832 11.2563 6.90219C11.8487 7.1305 12.1745 7.27025 12.285 7.30438C12.6319 7.43113 12.9236 7.48638 13.1527 7.48638C13.3266 7.48638 13.572 7.43113 13.8507 7.34663C14.0075 7.29138 14.3032 7.19388 14.7265 7.01269C15.1458 6.85994 15.4757 6.72913 15.7381 6.63163C16.1403 6.513 16.5295 6.40332 16.8764 6.34807C17.2877 6.28322 17.7051 6.26605 18.1203 6.29688C18.8399 6.34391 19.5487 6.49639 20.2239 6.74944C21.3281 7.19388 22.221 7.88775 22.8857 8.87413C22.6047 9.04727 22.3411 9.24698 22.0983 9.4705C21.5699 9.93897 21.1198 10.4889 20.765 11.0996C20.3013 11.9341 20.0609 12.8741 20.0671 13.8288C20.0842 15.0012 20.3848 16.0339 20.9771 16.9268C21.4126 17.5886 21.9785 18.1545 22.6403 18.59C22.9791 18.8183 23.2708 18.9751 23.5503 19.0808C23.4195 19.487 23.2797 19.8803 23.1148 20.2703C22.7407 21.1448 22.2873 21.9833 21.7603 22.7752C21.2907 23.4569 20.9227 23.9647 20.6432 24.3027C20.2077 24.8186 19.7884 25.2127 19.3651 25.4873C18.8995 25.7961 18.3495 25.961 17.7905 25.961C17.4119 25.9755 17.0334 25.9297 16.6692 25.8253C16.3564 25.7197 16.0468 25.6051 15.7422 25.4743C15.4254 25.3288 15.0988 25.2058 14.7647 25.1063C13.939 24.8942 13.0732 24.8928 12.2468 25.1022C11.908 25.1997 11.5822 25.3134 11.2604 25.4532C10.8078 25.6433 10.5072 25.7709 10.3333 25.8253C9.98641 25.9269 9.62647 25.9903 9.26247 26.0114C8.69941 26.0114 8.17453 25.8505 7.65453 25.5247L7.66835 25.5133ZM15.0946 5.51363C14.3585 5.88169 13.6557 6.0385 12.9577 5.98732C12.848 5.2845 12.9577 4.56544 13.2494 3.77813C13.4977 3.11112 13.8647 2.49453 14.3325 1.95813C14.8265 1.39346 15.4259 0.930622 16.0972 0.595566C16.8122 0.227504 17.4939 0.0284413 18.1455 -0.000808716C18.23 0.735316 18.1455 1.45925 17.875 2.24169C17.6246 2.93336 17.2583 3.57738 16.7919 4.14619C16.3158 4.71163 15.7316 5.17627 15.0735 5.51282L15.0946 5.51363Z" fill="black"/>
</g>
<defs>
<clipPath id="clip0_16_166">
<rect width="26" height="26" fill="white"/>
</clipPath>
</defs>
</svg>
