<svg width="42" height="38" viewBox="0 0 42 38" fill="none" xmlns="http://www.w3.org/2000/svg">
<path d="M1 25.25V19.4268C1 16.5981 3.23858 14.3049 6 14.3049M1 25.25C1 28.0788 3.23858 30.372 6 30.372H36C38.7614 30.372 41 28.0788 41 25.25M1 25.25V33.0854C1 34.9712 2.49238 36.5 4.33333 36.5H7.66667C9.50762 36.5 11 34.9712 11 33.0854V30.372M41 25.25V19.4268C41 16.5981 38.7614 14.3049 36 14.3049H6M41 25.25V33.0854C41 34.9712 39.5076 36.5 37.6667 36.5H34.3333C32.4924 36.5 31 34.9712 31 33.0854V30.372M6 14.3049L8.67348 4.03481C9.06259 2.54004 10.3841 1.5 11.8943 1.5H30.2641C31.6989 1.5 32.9727 2.44049 33.4264 3.83483L36.8333 14.3049M6.83333 21.9878H12.6667M29.3333 21.9878H35.1667" stroke="black" stroke-width="2" stroke-linecap="round" stroke-linejoin="round"/>
</svg>
