<svg width="36" height="36" viewBox="0 0 36 36" fill="none" xmlns="http://www.w3.org/2000/svg">
<path d="M23.0595 15.1825C23.1971 15.1142 23.3454 15.0787 23.4958 15.0787L23.4958 15.1788L23.4957 15.0787C23.6461 15.0787 23.7944 15.1142 23.9321 15.1825C24.0696 15.2508 24.1932 15.3503 24.2966 15.4743C24.3998 15.5983 24.481 15.7445 24.5361 15.9043C24.5913 16.0641 24.6194 16.2349 24.6194 16.4071L23.0595 15.1825ZM23.0595 15.1825C22.922 15.2508 22.7983 15.3503 22.695 15.4743M23.0595 15.1825L22.695 15.4743M22.695 15.4743C22.5917 15.5983 22.5105 15.7445 22.4554 15.9043M22.695 15.4743L22.4554 15.9043M22.4554 15.9043C22.4003 16.0641 22.3721 16.2349 22.3722 16.4071L22.4554 15.9043ZM28.0642 10.9695H28.0641H27.7537V8.98954V8.98952C27.7531 6.20073 25.8596 3.9 23.4958 3.9C21.1319 3.9 19.2384 6.20074 19.2384 8.98954V10.9695H18.928H18.9279C18.3818 10.9702 17.8629 11.231 17.4834 11.6865C17.1043 12.1414 16.8933 12.7549 16.8927 13.3918V13.3919L16.8927 20.7781L16.8927 20.7782C16.8933 21.4151 17.1043 22.0286 17.4834 22.4835C17.8629 22.939 18.3818 23.1997 18.9279 23.2005H18.928H28.0646H28.0648C28.6108 23.1997 29.1297 22.939 29.5093 22.4835C29.8884 22.0286 30.0994 21.4151 30.1 20.7782V20.7781V13.3919V13.3918C30.0992 12.7548 29.8881 12.1413 29.5089 11.6864C29.1293 11.231 28.6103 10.9702 28.0642 10.9695ZM20.4502 8.98954C20.4502 6.94528 21.8326 5.31417 23.4958 5.31417C25.1589 5.31417 26.5414 6.94528 26.5414 8.98954V10.9695H20.4502V8.98954ZM28.8876 20.7787C28.8876 21.3526 28.5023 21.7877 28.0641 21.7877H18.9276C18.7156 21.7874 18.5078 21.6863 18.3514 21.4985C18.1945 21.3101 18.1041 21.0514 18.1039 20.7787V13.3926C18.1039 12.8187 18.4893 12.3836 18.9275 12.3836H28.0641C28.5018 12.3836 28.8876 12.8181 28.8876 13.3926V20.7787ZM22.3722 16.4071C22.3722 16.8717 22.5765 17.2819 22.8899 17.5199V18.7423C22.8899 18.9246 22.95 19.1022 23.0612 19.2356C23.1728 19.3696 23.3286 19.4494 23.4958 19.4494C23.663 19.4494 23.8187 19.3696 23.9303 19.2356C24.0415 19.1022 24.1017 18.9246 24.1017 18.7423V17.5199C24.415 17.2819 24.6194 16.8717 24.6194 16.4071H22.3722Z" fill="black" stroke="black" stroke-width="0.2"/>
<path d="M28.2602 22.1217C28.0681 22.1217 27.8839 22.2133 27.7481 22.3763C27.6122 22.5393 27.5359 22.7604 27.5359 22.9909V29.0681C27.5359 29.7606 27.0667 30.3237 26.4896 30.3237H7.49576C6.9187 30.3237 6.44949 29.7606 6.44949 29.0681V21.6895C6.44949 20.997 6.9187 20.434 7.49576 20.434H17.0249C17.217 20.434 17.4012 20.3424 17.5371 20.1794C17.6729 20.0164 17.7492 19.7953 17.7492 19.5648C17.7492 19.3342 17.6729 19.1132 17.5371 18.9501C17.4012 18.7871 17.217 18.6956 17.0249 18.6956H7.49576C6.83425 18.6966 6.20006 19.0123 5.73222 19.5735C5.26438 20.1348 5.00106 20.8957 5 21.6895V29.0681C5 30.7187 6.12032 32.0621 7.49576 32.0621H26.4896C27.1511 32.0611 27.7853 31.7453 28.2532 31.1841C28.721 30.6229 28.9843 29.862 28.9854 29.0681V22.9909C28.985 22.7604 28.9084 22.5394 28.7725 22.3765C28.6366 22.2136 28.4524 22.122 28.2602 22.1217Z" fill="black"/>
<path d="M10.2185 25.3788C10.2185 25.709 10.3278 26.0256 10.5223 26.2591C10.7169 26.4926 10.9808 26.6237 11.2559 26.6237C11.531 26.6237 11.7949 26.4926 11.9895 26.2591C12.184 26.0256 12.2933 25.709 12.2933 25.3788C12.2933 25.0487 12.184 24.732 11.9895 24.4985C11.7949 24.2651 11.531 24.1339 11.2559 24.1339C10.9808 24.1339 10.7169 24.2651 10.5223 24.4985C10.3278 24.732 10.2185 25.0487 10.2185 25.3788ZM16.9927 24.1339C16.7176 24.1339 16.4537 24.2651 16.2591 24.4985C16.0646 24.732 15.9553 25.0487 15.9553 25.3788C15.9553 25.709 16.0646 26.0256 16.2591 26.2591C16.4537 26.4926 16.7176 26.6237 16.9927 26.6237C17.2678 26.6237 17.5317 26.4926 17.7263 26.2591C17.9208 26.0256 18.0301 25.709 18.0301 25.3788C18.0301 25.0487 17.9208 24.732 17.7263 24.4985C17.5317 24.2651 17.2678 24.1339 16.9927 24.1339ZM21.6921 25.3788C21.6921 25.709 21.8014 26.0256 21.9959 26.2591C22.1905 26.4926 22.4543 26.6237 22.7295 26.6237C23.0046 26.6237 23.2685 26.4926 23.4631 26.2591C23.6576 26.0256 23.7669 25.709 23.7669 25.3788C23.7669 25.0487 23.6576 24.732 23.4631 24.4985C23.2685 24.2651 23.0046 24.1339 22.7295 24.1339C22.4543 24.1339 22.1905 24.2651 21.9959 24.4985C21.8014 24.732 21.6921 25.0487 21.6921 25.3788Z" fill="black"/>
</svg>
