<svg width="200" height="200" viewBox="0 0 200 200" fill="none" xmlns="http://www.w3.org/2000/svg">
<path d="M100 95.7422C78.4375 95.7422 60.8984 78.2031 60.8984 56.6406C60.8984 35.0781 78.4375 17.5391 100 17.5391C121.562 17.5391 139.102 35.0781 139.102 56.6406C139.102 78.2031 121.562 95.7422 100 95.7422ZM100 25.3516C82.7344 25.3516 68.7109 39.375 68.7109 56.6406C68.7109 73.9062 82.7344 87.9297 100 87.9297C117.266 87.9297 131.289 73.9062 131.289 56.6406C131.289 39.375 117.266 25.3516 100 25.3516ZM105.977 183.164H17.1094V179.258C17.1094 158.516 23.5547 140.664 36.25 126.25C45.5859 115.664 58.0469 107.109 73.3203 100.859L75.0391 100.156L76.6797 101.055C83.5547 104.805 91.6016 106.797 99.9219 106.797C108.281 106.797 116.367 104.805 123.242 101.016L124.883 100.117L126.602 100.82C127.383 101.133 128.086 101.445 128.789 101.719C134.922 104.18 139.336 105.977 146.562 111.367C148.281 112.656 148.672 115.117 147.383 116.836C146.094 118.555 143.633 118.945 141.914 117.656C135.508 112.891 131.875 111.406 125.898 108.984C125.703 108.906 125.547 108.828 125.352 108.75C117.695 112.578 108.945 114.609 99.9219 114.609C90.9375 114.609 82.2266 112.617 74.6094 108.789C52.3047 118.32 26.6797 137.5 25 175.352H105.977C108.125 175.352 109.883 177.109 109.883 179.258C109.883 181.406 108.125 183.164 105.977 183.164Z" fill="black"/>
<path d="M139.922 183.164H119.531V162.773C119.531 160.664 120.352 158.711 121.836 157.227L155.664 123.516C160.234 118.945 167.656 118.984 172.227 123.516L179.219 130.508C181.445 132.734 182.656 135.664 182.656 138.789C182.656 141.914 181.445 144.844 179.219 147.07L145.43 180.859C143.984 182.344 141.992 183.164 139.922 183.164ZM127.344 175.352H139.922L173.711 141.563C175.234 140.039 175.234 137.578 173.711 136.055L166.719 129.063C165.195 127.539 162.734 127.539 161.211 129.063L127.344 162.773V175.352Z" fill="black"/>
</svg>
