<svg width="44" height="44" viewBox="0 0 44 44" fill="none" xmlns="http://www.w3.org/2000/svg">
<path d="M5.5 9.5C5.5 8.09987 5.5 7.3998 5.77248 6.86502C6.01217 6.39462 6.39462 6.01217 6.86502 5.77248C7.3998 5.5 8.09987 5.5 9.5 5.5H34.5C35.9001 5.5 36.6002 5.5 37.135 5.77248C37.6054 6.01217 37.9878 6.39462 38.2275 6.86502C38.5 7.3998 38.5 8.09987 38.5 9.5V34.5C38.5 35.9001 38.5 36.6002 38.2275 37.135C37.9878 37.6054 37.6054 37.9878 37.135 38.2275C36.6002 38.5 35.9001 38.5 34.5 38.5H9.5C8.09987 38.5 7.3998 38.5 6.86502 38.2275C6.39462 37.9878 6.01217 37.6054 5.77248 37.135C5.5 36.6002 5.5 35.9001 5.5 34.5V9.5Z" stroke="#222222" stroke-width="2"/>
<path d="M19.1667 22C19.1667 24.4853 17.1519 26.5 14.6667 26.5C12.1814 26.5 10.1667 24.4853 10.1667 22C10.1667 19.5147 12.1814 17.5 14.6667 17.5C17.1519 17.5 19.1667 19.5147 19.1667 22Z" stroke="#222222" stroke-width="2"/>
<path d="M18.3333 22H25.6667M31.1667 25.6667V22.15C31.1667 22.0672 31.0995 22 31.0167 22H25.6667M25.6667 22V25.6667" stroke="#222222" stroke-width="2" stroke-linecap="round"/>
</svg>
