<svg width="36" height="36" viewBox="0 0 36 36" fill="none" xmlns="http://www.w3.org/2000/svg">
<path d="M4.5 8.5C4.5 7.09987 4.5 6.3998 4.77248 5.86502C5.01217 5.39462 5.39462 5.01217 5.86502 4.77248C6.3998 4.5 7.09987 4.5 8.5 4.5H27.5C28.9001 4.5 29.6002 4.5 30.135 4.77248C30.6054 5.01217 30.9878 5.39462 31.2275 5.86502C31.5 6.3998 31.5 7.09987 31.5 8.5V27.5C31.5 28.9001 31.5 29.6002 31.2275 30.135C30.9878 30.6054 30.6054 30.9878 30.135 31.2275C29.6002 31.5 28.9001 31.5 27.5 31.5H8.5C7.09987 31.5 6.3998 31.5 5.86502 31.2275C5.39462 30.9878 5.01217 30.6054 4.77248 30.135C4.5 29.6002 4.5 28.9001 4.5 27.5V8.5Z" stroke="white" stroke-width="2"/>
<circle cx="12" cy="18" r="3.5" stroke="white" stroke-width="2"/>
<path d="M15 18H21M25.5 21V18.15C25.5 18.0672 25.4328 18 25.35 18H21M21 18V21" stroke="white" stroke-width="2" stroke-linecap="round"/>
</svg>
