<svg width="200" height="200" viewBox="0 0 200 200" fill="none" xmlns="http://www.w3.org/2000/svg">
<path d="M112.5 175H79.1667C78.0616 175 77.0018 174.561 76.2204 173.78C75.439 172.998 75 171.938 75 170.833C75 169.728 75.439 168.668 76.2204 167.887C77.0018 167.106 78.0616 166.667 79.1667 166.667H112.5C119.392 166.667 125 161.058 125 154.167V112.5C125 111.395 125.439 110.335 126.22 109.554C127.002 108.772 128.062 108.333 129.167 108.333C130.272 108.333 131.332 108.772 132.113 109.554C132.894 110.335 133.333 111.395 133.333 112.5V154.167C133.333 165.65 123.992 175 112.5 175ZM195.833 91.6667H112.5C111.395 91.6667 110.335 91.2277 109.554 90.4463C108.772 89.6649 108.333 88.6051 108.333 87.5C108.333 86.3949 108.772 85.3351 109.554 84.5537C110.335 83.7723 111.395 83.3333 112.5 83.3333H195.833C196.938 83.3333 197.998 83.7723 198.78 84.5537C199.561 85.3351 200 86.3949 200 87.5C200 88.6051 199.561 89.6649 198.78 90.4463C197.998 91.2277 196.938 91.6667 195.833 91.6667Z" fill="black"/>
<path d="M66.6667 200C64.8333 200 63.0417 199.692 61.35 199.092L11.4333 182.45C8.11104 181.354 5.21841 179.239 3.16607 176.406C1.11373 173.573 0.00595554 170.165 0 166.667V16.6667C0 7.475 7.475 2.98023e-06 16.6667 2.98023e-06C18.5167 2.98023e-06 20.3167 0.308336 21.9917 0.91667L71.9 17.55C75.2237 18.6439 78.1177 20.7581 80.1704 23.5918C82.2231 26.4254 83.3299 29.8343 83.3333 33.3333V183.333C83.3333 192.525 75.8583 200 66.6667 200ZM16.6667 8.33334C12.0667 8.33334 8.33333 12.075 8.33333 16.6667V166.667C8.34048 168.416 8.89809 170.119 9.92713 171.534C10.9562 172.949 12.4044 174.004 14.0667 174.55L64.0667 191.217C69.5333 193.158 75 188.783 75 183.333V33.3333C74.9962 31.584 74.4397 29.8806 73.4101 28.4663C72.3804 27.0521 70.9303 25.9993 69.2667 25.4583L19.2667 8.79167C18.433 8.4897 17.5533 8.33462 16.6667 8.33334Z" fill="black"/>
<path d="M129.167 66.6667C128.062 66.6667 127.002 66.2277 126.22 65.4463C125.439 64.6649 125 63.6051 125 62.5V20.8333C125 13.9417 119.392 8.33333 112.5 8.33333L16.6667 8.33334C15.5616 8.33334 14.5018 7.89435 13.7204 7.11295C12.939 6.33154 12.5 5.27174 12.5 4.16667C12.5 3.0616 12.939 2.00179 13.7204 1.22039C14.5018 0.438987 15.5616 2.98023e-06 16.6667 2.98023e-06L112.5 0C123.992 0 133.333 9.35 133.333 20.8333V62.5C133.333 63.6051 132.894 64.6649 132.113 65.4463C131.332 66.2277 130.272 66.6667 129.167 66.6667ZM162.5 125C161.677 125 160.872 124.756 160.187 124.298C159.502 123.841 158.968 123.191 158.652 122.43C158.337 121.67 158.254 120.833 158.413 120.025C158.573 119.217 158.969 118.475 159.55 117.892L189.933 87.5083L159.55 57.125C158.791 56.3392 158.371 55.2867 158.381 54.1942C158.39 53.1017 158.828 52.0566 159.601 51.2841C160.373 50.5116 161.418 50.0734 162.511 50.0639C163.603 50.0544 164.656 50.4743 165.442 51.2333L198.775 84.5667C199.556 85.348 199.995 86.4077 199.995 87.5125C199.995 88.6174 199.556 89.677 198.775 90.4583L165.442 123.792C164.659 124.567 163.602 125.001 162.5 125Z" fill="black"/>
</svg>
