<svg width="31" height="49" viewBox="0 0 31 49" fill="none" xmlns="http://www.w3.org/2000/svg">
<path fill-rule="evenodd" clip-rule="evenodd" d="M15.1324 0C23.4897 0 30.2647 6.77498 30.2647 15.1324C30.2647 23.0036 24.2549 29.4713 16.5735 30.197V46.1176C16.5735 46.9136 15.9283 47.5588 15.1324 47.5588C14.3364 47.5588 13.6912 46.9136 13.6912 46.1176V30.197C6.0098 29.4713 0 23.0036 0 15.1324C0 6.77498 6.77498 0 15.1324 0Z" fill="black"/>
<path d="M20.1765 15.1323C20.1765 12.3465 17.9182 10.0881 15.1324 10.0881C12.3466 10.0881 10.0883 12.3465 10.0883 15.1323C10.0883 17.918 12.3466 20.1764 15.1324 20.1764C17.9182 20.1764 20.1765 17.918 20.1765 15.1323Z" fill="white"/>
<path opacity="0.3" d="M15.1324 48.9999C17.1222 48.9999 18.7353 48.1934 18.7353 47.1984C18.7353 46.2035 17.1222 45.397 15.1324 45.397C13.1425 45.397 11.5294 46.2035 11.5294 47.1984C11.5294 48.1934 13.1425 48.9999 15.1324 48.9999Z" fill="black"/>
</svg>
