<svg width="33" height="33" viewBox="0 0 33 33" fill="none" xmlns="http://www.w3.org/2000/svg">
<path d="M11.0067 2.68555C10.2477 2.68555 9.63172 3.30155 9.63172 4.06055V8.18555C9.32922 8.18555 8.42859 8.18555 8.25671 8.18555C7.49771 8.18555 6.88171 8.80155 6.88171 9.56055V16.4355C6.88171 19.4729 9.34434 21.9355 12.3817 21.9355H15.1317V25.373C15.1317 26.5115 14.2077 27.4355 13.0692 27.4355H9.63172C8.87272 27.4355 8.25671 28.0515 8.25671 28.8105C8.25671 29.5695 8.87272 30.1855 9.63172 30.1855H13.0692C15.7271 30.1855 17.8817 28.0309 17.8817 25.373V21.9355H20.6317C23.6691 21.9355 26.1317 19.4729 26.1317 16.4355V9.56055C26.1317 8.80155 25.5157 8.18555 24.7567 8.18555C24.5849 8.18555 23.6842 8.18555 23.3817 8.18555V4.06055C23.3817 3.30155 22.7657 2.68555 22.0067 2.68555C21.2477 2.68555 20.6317 3.30155 20.6317 4.06055V8.18555C17.6672 8.18555 15.3462 8.18555 12.3817 8.18555V4.06055C12.3817 3.30155 11.7657 2.68555 11.0067 2.68555ZM9.63172 10.9355C12.6636 10.9355 20.3498 10.9355 23.3817 10.9355V16.4355C23.3817 17.9549 22.1511 19.1855 20.6317 19.1855H16.5067H12.3817C10.8623 19.1855 9.63172 17.9549 9.63172 16.4355V10.9355Z" fill="#2A343D"/>
</svg>
