<svg width="44" height="44" viewBox="0 0 44 44" fill="none" xmlns="http://www.w3.org/2000/svg">
<path d="M29.3799 37.7129L29.3804 31.821C29.3807 28.5665 26.7425 25.9281 23.488 25.9281H10.2931C7.03905 25.9281 4.40102 28.5658 4.40066 31.8198L4.39999 37.7129M39.5995 37.7133L39.6 31.8214C39.6003 28.5668 36.9621 25.9284 33.7076 25.9284M28.2449 7.4442C29.692 8.51787 30.6298 10.2391 30.6298 12.1794C30.6298 14.1196 29.692 15.8409 28.2449 16.9146M22.9053 12.1791C22.9053 15.4334 20.2672 18.0715 17.0129 18.0715C13.7586 18.0715 11.1204 15.4334 11.1204 12.1791C11.1204 8.92475 13.7586 6.28662 17.0129 6.28662C20.2672 6.28662 22.9053 8.92475 22.9053 12.1791Z" stroke="black" stroke-width="2" stroke-linecap="round" stroke-linejoin="round"/>
</svg>
