<svg width="56" height="56" viewBox="0 0 56 56" fill="none" xmlns="http://www.w3.org/2000/svg">
<path d="M50.4 38.6399V39.6399C50.9523 39.6399 51.4 39.1922 51.4 38.6399H50.4ZM50.4 26.3199H51.4C51.4 25.7676 50.9523 25.3199 50.4 25.3199V26.3199ZM17.3792 15.3987C16.9146 15.6974 16.7801 16.3161 17.0788 16.7807C17.3774 17.2452 17.9962 17.3797 18.4607 17.0811L17.3792 15.3987ZM33.6 6.15991L34.3893 5.54597C34.0716 5.13743 33.4946 5.03885 33.0592 5.31873L33.6 6.15991ZM40.6506 16.8539C40.9897 17.2898 41.618 17.3683 42.0539 17.0293C42.4899 16.6902 42.5684 16.0619 42.2293 15.626L40.6506 16.8539ZM50.4 37.6399H43.12V39.6399H50.4V37.6399ZM43.12 27.3199H50.4V25.3199H43.12V27.3199ZM49.4 26.3199V38.6399H51.4V26.3199H49.4ZM37.96 32.4799C37.96 29.6301 40.2702 27.3199 43.12 27.3199V25.3199C39.1656 25.3199 35.96 28.5256 35.96 32.4799H37.96ZM43.12 37.6399C40.2702 37.6399 37.96 35.3297 37.96 32.4799H35.96C35.96 36.4343 39.1656 39.6399 43.12 39.6399V37.6399ZM18.4607 17.0811L34.1407 7.00109L33.0592 5.31873L17.3792 15.3987L18.4607 17.0811ZM32.8106 6.77385L40.6506 16.8539L42.2293 15.626L34.3893 5.54597L32.8106 6.77385ZM7.83998 17.2399H45.92V15.2399H7.83998V17.2399ZM45.92 48.8399H7.83997V50.8399H45.92V48.8399ZM6.59998 47.5999V18.4799H4.59998V47.5999H6.59998ZM7.83997 48.8399C7.15514 48.8399 6.59998 48.2847 6.59998 47.5999H4.59998C4.59998 49.3893 6.05057 50.8399 7.83997 50.8399V48.8399ZM47.16 47.5999C47.16 48.2848 46.6048 48.8399 45.92 48.8399V50.8399C47.7094 50.8399 49.16 49.3893 49.16 47.5999H47.16ZM45.92 17.2399C46.6048 17.2399 47.16 17.7951 47.16 18.4799H49.16C49.16 16.6905 47.7094 15.2399 45.92 15.2399V17.2399ZM7.83998 15.2399C6.05057 15.2399 4.59998 16.6905 4.59998 18.4799H6.59998C6.59998 17.7951 7.15514 17.2399 7.83998 17.2399V15.2399ZM47.16 40.3199V47.5999H49.16V40.3199H47.16ZM47.16 18.4799V24.3599H49.16V18.4799H47.16Z" fill="black"/>
</svg>
